<?xml version="1.0" encoding="UTF-8"?>
<svg version="1.1" xmlns="http://www.w3.org/2000/svg" width="500" height="500">
<path d="M0 0 C6.6 0 13.2 0 20 0 C28.05172414 8.05172414 28.05172414 8.05172414 30.8125 11.1875 C31.37582031 11.82042969 31.93914062 12.45335937 32.51953125 13.10546875 C33.99256907 14.99049077 35.01244381 16.82737639 36 19 C36.66 19 37.32 19 38 19 C42 23.47058824 42 23.47058824 42 26 C42.66 26 43.32 26 44 26 C45.60178593 27.78104718 47.13381926 29.62537278 48.625 31.5 C49.44226563 32.5209375 50.25953125 33.541875 51.1015625 34.59375 C51.72804687 35.3878125 52.35453125 36.181875 53 37 C53.99 36.67 54.98 36.34 56 36 C56 35.34 56 34.68 56 34 C56.66 34 57.32 34 58 34 C58.2475 33.443125 58.495 32.88625 58.75 32.3125 C60.22924818 29.57589087 61.93467439 27.32349131 64 25 C64.66 25 65.32 25 66 25 C66 24.34 66 23.68 66 23 C66.66 23 67.32 23 68 23 C68.32291016 22.19949219 68.32291016 22.19949219 68.65234375 21.3828125 C70.49576844 18.12342392 73.00013373 15.5718823 75.5625 12.875 C79.18633907 9.23596593 79.18633907 9.23596593 82 5 C82.66 5 83.32 5 84 5 C84.4640625 4.0409375 84.4640625 4.0409375 84.9375 3.0625 C86 1 86 1 87 0 C93.93 0 100.86 0 108 0 C108 25.74 108 51.48 108 78 C100.74 78 93.48 78 86 78 C85.67 63.15 85.34 48.3 85 33 C81.43485602 36.56514398 77.96460406 40.161046 74.5625 43.875 C73.51448983 45.01187263 72.46630497 46.14858427 71.41796875 47.28515625 C69.64578872 49.20895555 67.8764443 51.13518597 66.11181641 53.06591797 C64.20423482 55.15247064 62.29004457 57.23279786 60.375 59.3125 C59.46923218 60.30902588 59.46923218 60.30902588 58.54516602 61.32568359 C57.98112061 61.93621582 57.4170752 62.54674805 56.8359375 63.17578125 C56.08642822 63.99429565 56.08642822 63.99429565 55.32177734 64.8293457 C54 66 54 66 52 66 C50.58984375 64.6015625 50.58984375 64.6015625 48.9375 62.625 C46.17182591 59.37058933 43.36691808 56.16586167 40.5 53 C39.74847656 52.1646875 38.99695313 51.329375 38.22265625 50.46875 C36.7755913 48.8614652 35.32523307 47.25713732 33.87109375 45.65625 C33.23300781 44.9446875 32.59492188 44.233125 31.9375 43.5 C31.36902344 42.8709375 30.80054688 42.241875 30.21484375 41.59375 C29 40 29 40 29 38 C28.34 38 27.68 38 27 38 C26.525625 37.360625 26.05125 36.72125 25.5625 36.0625 C24.0908635 33.71627037 24.0908635 33.71627037 21 33 C21 47.85 21 62.7 21 78 C14.07 78 7.14 78 0 78 C0 52.26 0 26.52 0 0 Z " fill="#1E5B38" transform="translate(151,212)"/>
<path d="M0 0 C11.45650367 -0.02255012 22.91299271 -0.04091456 34.36951351 -0.05181217 C39.68865213 -0.05704122 45.00777484 -0.06413927 50.3269043 -0.07543945 C55.45563985 -0.08626755 60.58436006 -0.09227667 65.71310616 -0.09487724 C67.67441614 -0.09673163 69.63572524 -0.10035251 71.59702873 -0.10573006 C74.33415447 -0.11293946 77.07121597 -0.11399099 79.80834961 -0.11352539 C81.03725418 -0.1189183 81.03725418 -0.1189183 82.29098511 -0.12442017 C87.88594784 -0.11405216 87.88594784 -0.11405216 89 1 C89.36882928 4.04284154 89.37663512 5.48913853 87.53125 7.9921875 C86.8609375 8.61351562 86.190625 9.23484375 85.5 9.875 C84.52546875 10.79925781 84.52546875 10.79925781 83.53125 11.7421875 C73.15224913 21 73.15224913 21 51 21 C51 39.81 51 58.62 51 78 C43.74 78 36.48 78 29 78 C29 59.19 29 40.38 29 21 C22.73 21 16.46 21 10 21 C6.66092571 20.73017581 3.32151582 20.43560863 0 20 C0 13.4 0 6.8 0 0 Z " fill="#9DC848" transform="translate(262,212)"/>
<path d="M0 0 C11.45650016 -0.02312241 22.91299481 -0.04091457 34.36951351 -0.05181217 C39.68865213 -0.05704122 45.00777484 -0.06413927 50.3269043 -0.07543945 C55.45563985 -0.08626755 60.58436006 -0.09227667 65.71310616 -0.09487724 C67.67441614 -0.09673163 69.63572524 -0.10035251 71.59702873 -0.10573006 C74.33415447 -0.11293946 77.07121597 -0.11399099 79.80834961 -0.11352539 C81.03725418 -0.1189183 81.03725418 -0.1189183 82.29098511 -0.12442017 C87.88594784 -0.11405216 87.88594784 -0.11405216 89 1 C89.04063832 2.66617115 89.042721 4.33388095 89 6 C88.34 6.33 87.68 6.66 87 7 C87 5.02 87 3.04 87 1 C86.42934814 1.02505615 85.85869629 1.0501123 85.27075195 1.07592773 C72.03267139 1.6387344 58.79870469 2.02293862 45.55078125 2.25390625 C44.37024673 2.27464706 43.18971222 2.29538788 41.97340393 2.3167572 C35.96844357 2.42067352 29.9634426 2.51759267 23.95825195 2.60717773 C21.70393723 2.64427336 19.44962402 2.68146026 17.1953125 2.71875 C16.15566849 2.73229019 15.11602448 2.74583038 14.0448761 2.75978088 C9.26358944 2.84226174 4.70076333 3.01414685 0 4 C0 2.68 0 1.36 0 0 Z " fill="#C2DC8A" transform="translate(262,212)"/>
<path d="M0 0 C0.33 0 0.66 0 1 0 C1.33 15.51 1.66 31.02 2 47 C5.29960141 48.6498007 8.99127884 48.38258361 12.625 48.5625 C13.82769531 48.62727539 13.82769531 48.62727539 15.0546875 48.69335938 C17.0362511 48.79951457 19.01810271 48.90026855 21 49 C21 49.33 21 49.66 21 50 C14.07 50 7.14 50 0 50 C0 33.5 0 17 0 0 Z " fill="#3C634E" transform="translate(151,240)"/>
<path d="M0 0 C2.97 0 5.94 0 9 0 C9.25 3.3125 9.25 3.3125 9 7 C7 8.9375 7 8.9375 5 10 C5.33 7.03 5.66 4.06 6 1 C4.02 1 2.04 1 0 1 C0 0.67 0 0.34 0 0 Z " fill="#A6CA4F" transform="translate(340,213)"/>
<path d="M0 0 C0.66 1.32 1.32 2.64 2 4 C0.6905332 5.33631236 -0.62265485 6.66897925 -1.9375 8 C-3.03384766 9.11375 -3.03384766 9.11375 -4.15234375 10.25 C-6 12 -6 12 -7 12 C-7.1875 9.625 -7.1875 9.625 -7 7 C-6.01 6.34 -5.02 5.68 -4 5 C-3.34 5.33 -2.68 5.66 -2 6 C-1.34 4.02 -0.68 2.04 0 0 Z " fill="#507562" transform="translate(225,251)"/>
<path d="M0 0 C0.99 0.495 0.99 0.495 2 1 C2.33 1.99 2.66 2.98 3 4 C2.67 4.33 2.34 4.66 2 5 C1.84259395 6.70563778 1.74906608 8.41727244 1.68359375 10.12890625 C1.64169922 11.16337891 1.59980469 12.19785156 1.55664062 13.26367188 C1.51732422 14.35228516 1.47800781 15.44089844 1.4375 16.5625 C1.39431641 17.65498047 1.35113281 18.74746094 1.30664062 19.87304688 C1.20017932 22.58189564 1.09816484 25.29083992 1 28 C0.67 28 0.34 28 0 28 C0 18.76 0 9.52 0 0 Z " fill="#2D563F" transform="translate(151,212)"/>
<path d="M0 0 C2.1385485 2.1385485 2.42655063 3.13275314 3 6 C-1.75 7.125 -1.75 7.125 -4 6 C-3.67 4.35 -3.34 2.7 -3 1 C-2.01 0.67 -1.02 0.34 0 0 Z " fill="#145530" transform="translate(205,249)"/>
<path d="M0 0 C0.66 1.32 1.32 2.64 2 4 C-2.75 8 -2.75 8 -5 8 C-5.33 8.66 -5.66 9.32 -6 10 C-6.33 9.01 -6.66 8.02 -7 7 C-6.34 7 -5.68 7 -5 7 C-5 6.34 -5 5.68 -5 5 C-4.34 5 -3.68 5 -3 5 C-2.690625 4.360625 -2.38125 3.72125 -2.0625 3.0625 C-1 1 -1 1 0 0 Z " fill="#3D6D57" transform="translate(212,241)"/>
<path d="M0 0 C2.24834496 -0.13526139 4.49902514 -0.23210804 6.75 -0.3125 C8.00296875 -0.37050781 9.2559375 -0.42851562 10.546875 -0.48828125 C14 0 14 0 16.453125 2.51953125 C16.96359375 3.33808594 17.4740625 4.15664062 18 5 C17.67 5.66 17.34 6.32 17 7 C16.34 7 15.68 7 15 7 C15 5.68 15 4.36 15 3 C7.575 2.01 7.575 2.01 0 1 C0 0.67 0 0.34 0 0 Z " fill="#4E765F" transform="translate(157,212)"/>
<path d="M0 0 C0.99 0.33 1.98 0.66 3 1 C3 1.99 3 2.98 3 4 C2.01 4.495 2.01 4.495 1 5 C1 9.62 1 14.24 1 19 C0.67 19 0.34 19 0 19 C-0.09087891 17.62714844 -0.09087891 17.62714844 -0.18359375 16.2265625 C-0.30927734 14.44378906 -0.30927734 14.44378906 -0.4375 12.625 C-0.51871094 11.44164062 -0.59992188 10.25828125 -0.68359375 9.0390625 C-0.81084936 6.08481099 -0.81084936 6.08481099 -2 4 C-1.34 4 -0.68 4 0 4 C0 2.68 0 1.36 0 0 Z " fill="#154527" transform="translate(171,240)"/>
<path d="M0 0 C1.70884005 1.62339805 3.37446717 3.29319053 5 5 C5 5.66 5 6.32 5 7 C3.35 7 1.7 7 0 7 C0 4.69 0 2.38 0 0 Z " fill="#4B775D" transform="translate(188,231)"/>
<path d="M0 0 C2.76223278 2.76223278 2.57856291 5.20706617 3 9 C-1.875 4.25 -1.875 4.25 -3 2 C-2.01 2 -1.02 2 0 2 C0 1.34 0 0.68 0 0 Z " fill="#406951" transform="translate(184,250)"/>
<path d="M0 0 C1.32 1.32 2.64 2.64 4 4 C3.01 4.99 2.02 5.98 1 7 C0.01 6.01 -0.98 5.02 -2 4 C-1.34 3.34 -0.68 2.68 0 2 C0 1.34 0 0.68 0 0 Z " fill="#4B7C5F" transform="translate(175,217)"/>
<path d="M0 0 C2.97 0.495 2.97 0.495 6 1 C5.67 2.32 5.34 3.64 5 5 C4.34 5 3.68 5 3 5 C1.375 2.5 1.375 2.5 0 0 Z " fill="#4F7261" transform="translate(200,273)"/>
<path d="M0 0 C1 2 1 2 0.375 4 C-1.39265071 6.57112831 -3.07589059 7.07659703 -6 8 C-4.625 5.5 -4.625 5.5 -3 3 C-2.34 3 -1.68 3 -1 3 C-0.67 2.01 -0.34 1.02 0 0 Z " fill="#618A72" transform="translate(236,214)"/>
</svg>
